# xmcd
#
# Track frame offsets: 
#        150
#        20867
#        41417
#        72772
#        86287
#        107370
#        126407
#        148755
#        170702
#        194790
#        218007
#        241145
#        264245
#
# Disc length: 3788 seconds
#
# Revision: 3
# Processed by: cddbd v1.5.2PL0 Copyright (c) Steve Scherf et al.
# Submitted via: ExactAudioCopyFreeDBPlugin 1.0
#
DISCID=b90eca0d
DTITLE=Albert Collins - The Ice Axe Cometh
DYEAR=1999
DGENRE=Blues
TTITLE0=Brick
TTITLE1=Ego Trip
TTITLE2=Lights Are On, But Nobody's Home
TTITLE3=Too Tired
TTITLE4=Don't Lose Your Cool
TTITLE5=Give Me My Blues
TTITLE6=Highway Is Like A Woman
TTITLE7=Frosty (Live)
TTITLE8=Things I Used To Do (Live)
TTITLE9=Tired Man (Live)
TTITLE10=Master Charge
TTITLE11=When A Guitar Plays The Blues
TTITLE12=Hooked On You
EXTD=YEAR: 1999
EXTT0=
EXTT1=
EXTT2=
EXTT3=
EXTT4=
EXTT5=
EXTT6=
EXTT7=
EXTT8=
EXTT9=
EXTT10=
EXTT11=
EXTT12=
PLAYORDER=
